<mxfile host="app.diagrams.net" agent="Mozilla/5.0 (X11; Ubuntu; Linux x86_64; rv:133.0) Gecko/20100101 Firefox/133.0" version="25.0.3">
  <diagram name="Page-1" id="PgpIFvx44asoHmZQYUyY">
    <mxGraphModel>
      <root>
        <mxCell id="0" />
        <mxCell id="1" parent="0" />
        <mxCell id="2" value="Draw.io Instructions" style="whiteSpace=wrap;strokeWidth=2;verticalAlign=top;" vertex="1" parent="1">
          <mxGeometry x="8" y="8" width="529" height="876" as="geometry" />
        </mxCell>
        <mxCell id="3" value="Create Layers (Logical Sections)" style="whiteSpace=wrap;strokeWidth=2;verticalAlign=top;" vertex="1" parent="2">
          <mxGeometry x="46" y="43" width="454" height="274" as="geometry" />
        </mxCell>
        <mxCell id="4" value="User Layer" style="whiteSpace=wrap;strokeWidth=2;verticalAlign=top;" vertex="1" parent="3">
          <mxGeometry x="43" y="58" width="384" height="174" as="geometry" />
        </mxCell>
        <mxCell id="5" value="Element 1" style="whiteSpace=wrap;strokeWidth=2;" vertex="1" parent="4">
          <mxGeometry x="43" y="71" width="132" height="49" as="geometry" />
        </mxCell>
        <mxCell id="6" value="Element 2" style="whiteSpace=wrap;strokeWidth=2;" vertex="1" parent="4">
          <mxGeometry x="225" y="71" width="132" height="49" as="geometry" />
        </mxCell>
        <mxCell id="7" value="Draw.io Canvas Setup" style="whiteSpace=wrap;strokeWidth=2;verticalAlign=top;" vertex="1" parent="2">
          <mxGeometry x="119" y="367" width="308" height="482" as="geometry" />
        </mxCell>
        <mxCell id="8" value="Open Draw.io (or diagrams.net)" style="whiteSpace=wrap;strokeWidth=2;" vertex="1" parent="7">
          <mxGeometry x="71" y="58" width="181" height="67" as="geometry" />
        </mxCell>
        <mxCell id="9" value="Start with a blank canvas" style="whiteSpace=wrap;strokeWidth=2;" vertex="1" parent="7">
          <mxGeometry x="43" y="225" width="238" height="49" as="geometry" />
        </mxCell>
        <mxCell id="10" value="Set canvas layout to horizontal" style="whiteSpace=wrap;strokeWidth=2;" vertex="1" parent="7">
          <mxGeometry x="60" y="374" width="204" height="67" as="geometry" />
        </mxCell>
        <mxCell id="11" value="" style="curved=1;startArrow=none;endArrow=block;exitX=0.5;exitY=0.99;entryX=0.5;entryY=-0.01;" edge="1" parent="7" source="8" target="9">
          <mxGeometry relative="1" as="geometry">
            <Array as="points" />
          </mxGeometry>
        </mxCell>
        <mxCell id="12" value="" style="curved=1;startArrow=none;endArrow=block;exitX=0.5;exitY=0.99;entryX=0.5;entryY=-0.01;" edge="1" parent="7" source="9" target="10">
          <mxGeometry relative="1" as="geometry">
            <Array as="points" />
          </mxGeometry>
        </mxCell>
      </root>
    </mxGraphModel>
  </diagram>
</mxfile>
